<svg width="385" height="114" viewBox="0 0 385 114" fill="none" xmlns="http://www.w3.org/2000/svg">
<mask id="mask0_5_73" style="mask-type:luminance" maskUnits="userSpaceOnUse" x="0" y="0" width="98" height="114">
<path d="M0 0H97.6458V113.724H0V0Z" fill="white"/>
</mask>
<g mask="url(#mask0_5_73)">
<path d="M1.33333 28.7448C0.921875 29.0052 0.593751 29.349 0.359375 29.7709C0.119792 30.1979 0 30.6511 0 31.1406V83.875C0 84.3698 0.125 84.8386 0.369792 85.2656C0.619792 85.6979 0.953125 86.0417 1.38542 86.2969L47.125 113.297C47.5677 113.552 48.0417 113.682 48.5521 113.682C49.0573 113.682 49.5365 113.552 49.974 113.297L96.151 86.2865C96.5781 86.0365 96.9219 85.6927 97.1719 85.2604C97.4219 84.8281 97.5469 84.3594 97.5469 83.8594L97.6354 31.125C97.6302 30.6354 97.5104 30.1719 97.2708 29.7448C97.0313 29.3177 96.6979 28.974 96.2813 28.7188L50.0313 0.447937C49.5781 0.166686 49.0833 0.026062 48.5521 0.026062C48.0156 0.026062 47.526 0.166686 47.0729 0.447937L1.33333 28.7448ZM48.5677 6.16148L92 32.7188L91.9167 82.2604L48.5677 107.604L5.64063 82.2656V32.7136L48.5677 6.16148Z" fill="#FE151F"/>
</g>
<path d="M11.9583 80.0573C22.2708 85.9635 34.4427 92.9583 46.5885 99.9896C48.0938 100.859 49.3594 100.854 50.8438 99.9896C54.5052 97.8542 58.1667 95.724 61.8333 93.599C69.6354 89.0677 77.7031 84.3854 85.5833 79.6927C86.3594 79.224 86.9896 77.7448 87.0781 76.6406C87.224 74.9375 87.1979 73.1823 87.1823 71.4844C87.1667 70.2813 87.151 69.0417 87.1823 67.8125C87.2188 66.6667 86.8646 66.0729 85.8177 65.4583C81.8073 63.1406 77.8177 60.7917 73.849 58.4219C70.6719 56.5417 67.4896 54.6667 64.3021 52.7969C59.8698 50.1979 55.4167 47.6354 50.9271 45.0469L44.5313 41.3646L45.0156 40.8958C47.1823 38.8073 49.0781 38.5677 51.5625 40.0521C62.25 46.4635 73.2031 52.7083 82.6198 58.0417C83.6771 58.6406 85.3021 58.8906 85.849 58.5365C86.6771 57.9948 87.2917 56.3906 87.3229 55.2865C87.4115 52.2344 87.401 49.125 87.3906 46.1094C87.3906 43.3073 87.3698 40.4115 87.4427 37.5677C87.4896 35.5469 86.7396 34.3125 84.849 33.3125C82.5313 32.0729 80.2135 30.7396 77.974 29.4531L72.3542 26.224C65.0365 22.0365 57.7344 17.8438 50.4427 13.6354C49.1979 12.9167 48.224 12.9115 47.0417 13.5938C43.1198 15.8802 39.1979 18.1615 35.2656 20.4479C27.6667 24.875 19.8073 29.4375 12.1198 33.9948C11.1667 34.6719 10.599 35.5833 10.4115 36.7292C10.2031 39.8802 10.2031 43.026 10.4115 46.1771C10.5208 47.0052 10.9063 47.6719 11.5781 48.1771C15.7292 50.8125 20.0313 53.3385 23.6927 55.4531C30.7604 59.5573 37.8438 63.651 44.9375 67.7396L53.0469 72.4219L52.5313 72.8906C50.7813 74.4948 48.7708 75.7031 46.0469 73.776C44.2344 72.5469 42.3646 71.4219 40.4375 70.3906C39.6615 69.9583 38.8906 69.526 38.125 69.0781L33.0938 66.1667C27.1771 62.724 21.0573 59.1719 14.9792 55.7865C14.2448 55.4063 13.4688 55.2188 12.6406 55.2188C12.224 55.2031 11.8177 55.2813 11.4323 55.4479C10.8021 55.7656 10.2708 57.375 10.2448 58.5208C10.1719 62 10.1875 65.5156 10.2031 68.9271C10.2031 71.5833 10.2188 74.2448 10.2031 76.9063C10.1719 78.4167 10.6875 79.3229 11.9583 80.0573Z" fill="#FE151F"/>
<path d="M136.845 82.1042C136.106 82.1042 135.647 81.75 135.47 81.0417L134.158 76.3125C134.059 76.0104 133.856 75.8542 133.554 75.8542H119.866C119.559 75.8542 119.356 76.0104 119.262 76.3125L117.949 81.0417C117.767 81.75 117.309 82.1042 116.574 82.1042H105.908C105.46 82.1042 105.142 81.974 104.949 81.7083C104.751 81.4479 104.72 81.0938 104.845 80.6458L118.554 37.0625C118.762 36.3542 119.22 36 119.929 36H133.491C134.199 36 134.658 36.3542 134.866 37.0625L148.574 80.6458C148.616 80.7865 148.637 80.9479 148.637 81.125C148.637 81.7813 148.262 82.1042 147.512 82.1042H136.845ZM122.158 65.8958C122.158 66.2188 122.309 66.375 122.616 66.375H130.783C130.96 66.375 131.095 66.3229 131.179 66.2083C131.272 66.099 131.304 65.9531 131.262 65.7708L127.033 50.5625C126.991 50.3438 126.892 50.2292 126.741 50.2292C126.585 50.2292 126.47 50.3438 126.387 50.5625L122.158 65.7708V65.8958Z" fill="#222328"/>
<path d="M157.021 82.1042C156.188 82.1042 155.771 81.6875 155.771 80.8542V37.25C155.771 36.4167 156.188 36 157.021 36H166.833C167.542 36 168.047 36.2865 168.354 36.8542L176.333 49.8333C176.417 50.0156 176.542 50.1042 176.708 50.1042C176.885 50.1042 177.021 50.0156 177.104 49.8333L185.083 36.8542C185.385 36.2865 185.896 36 186.604 36H196.417C197.25 36 197.667 36.4167 197.667 37.25V80.8542C197.667 81.6875 197.25 82.1042 196.417 82.1042H186.521C185.688 82.1042 185.271 81.6875 185.271 80.8542V57.6042C185.271 57.3438 185.193 57.1875 185.042 57.1458C184.885 57.1042 184.75 57.1979 184.625 57.4167L180.542 64.1875C180.234 64.7604 179.729 65.0417 179.021 65.0417H174.417C173.708 65.0417 173.198 64.7604 172.896 64.1875L168.813 57.4167C168.688 57.2396 168.552 57.1458 168.417 57.1458C168.25 57.1458 168.167 57.3021 168.167 57.6042V80.8542C168.167 81.6875 167.74 82.1042 166.896 82.1042H157.021Z" fill="#222328"/>
<path d="M235.063 58C234.896 58.0833 234.813 58.1979 234.813 58.3333C234.813 58.4583 234.896 58.5729 235.063 58.6667C236.906 59.7656 238.281 61.1615 239.188 62.8542C240.089 64.5365 240.542 66.5625 240.542 68.9375C240.542 73.4531 238.958 76.7813 235.792 78.9167C232.635 81.0417 228.531 82.1042 223.479 82.1042H206.021C205.188 82.1042 204.771 81.6875 204.771 80.8542V37.25C204.771 36.4167 205.188 36 206.021 36H222.896C228.505 36 232.729 37 235.563 39C238.396 41 239.813 44.349 239.813 49.0417C239.813 53.125 238.229 56.1146 235.063 58ZM217.688 46.6042C217.339 46.6042 217.167 46.7865 217.167 47.1458V53.3333C217.167 53.6823 217.339 53.8542 217.688 53.8542H222.896C226.089 53.8542 227.688 52.6458 227.688 50.2292C227.688 47.8125 226.089 46.6042 222.896 46.6042H217.688ZM223.479 71.5C226.589 71.5 228.146 70.2083 228.146 67.625C228.146 65.1667 226.609 63.9375 223.542 63.9375H217.688C217.339 63.9375 217.167 64.1146 217.167 64.4583V70.9792C217.167 71.3281 217.339 71.5 217.688 71.5H223.479Z" fill="#222328"/>
<path d="M279.845 82.1042C279.106 82.1042 278.647 81.75 278.47 81.0417L277.158 76.3125C277.059 76.0104 276.856 75.8542 276.554 75.8542H262.866C262.559 75.8542 262.356 76.0104 262.262 76.3125L260.949 81.0417C260.767 81.75 260.309 82.1042 259.574 82.1042H248.908C248.46 82.1042 248.142 81.974 247.949 81.7083C247.751 81.4479 247.72 81.0938 247.845 80.6458L261.554 37.0625C261.762 36.3542 262.22 36 262.929 36H276.491C277.199 36 277.658 36.3542 277.866 37.0625L291.574 80.6458C291.616 80.7865 291.637 80.9479 291.637 81.125C291.637 81.7813 291.262 82.1042 290.512 82.1042H279.845ZM265.158 65.8958C265.158 66.2188 265.309 66.375 265.616 66.375H273.783C273.96 66.375 274.095 66.3229 274.179 66.2083C274.272 66.099 274.304 65.9531 274.262 65.7708L270.033 50.5625C269.991 50.3438 269.892 50.2292 269.741 50.2292C269.585 50.2292 269.47 50.3438 269.387 50.5625L265.158 65.7708V65.8958Z" fill="#222328"/>
<path d="M306.083 82.75C303.969 82.75 302.219 82.0833 300.833 80.75C299.458 79.4062 298.771 77.7656 298.771 75.8333C298.771 74.6146 299.115 73.474 299.813 72.4167C300.521 71.3646 301.438 70.5312 302.563 69.9167C303.688 69.3073 304.859 69 306.083 69C307.318 69 308.505 69.3073 309.646 69.9167C310.781 70.5312 311.698 71.3646 312.396 72.4167C313.104 73.474 313.458 74.6146 313.458 75.8333C313.458 77.7656 312.755 79.4062 311.354 80.75C309.948 82.0833 308.193 82.75 306.083 82.75Z" fill="#222328"/>
<path d="M352.845 82.1042C352.106 82.1042 351.647 81.75 351.47 81.0417L350.158 76.3125C350.059 76.0104 349.856 75.8542 349.554 75.8542H335.866C335.559 75.8542 335.356 76.0104 335.262 76.3125L333.949 81.0417C333.767 81.75 333.309 82.1042 332.574 82.1042H321.908C321.46 82.1042 321.142 81.974 320.949 81.7083C320.751 81.4479 320.72 81.0938 320.845 80.6458L334.554 37.0625C334.762 36.3542 335.22 36 335.929 36H349.491C350.199 36 350.658 36.3542 350.866 37.0625L364.574 80.6458C364.616 80.7865 364.637 80.9479 364.637 81.125C364.637 81.7813 364.262 82.1042 363.512 82.1042H352.845ZM338.158 65.8958C338.158 66.2188 338.309 66.375 338.616 66.375H346.783C346.96 66.375 347.095 66.3229 347.179 66.2083C347.272 66.099 347.304 65.9531 347.262 65.7708L343.033 50.5625C342.991 50.3438 342.892 50.2292 342.741 50.2292C342.585 50.2292 342.47 50.3438 342.387 50.5625L338.158 65.7708V65.8958Z" fill="#222328"/>
<path d="M373.021 82.1042C372.188 82.1042 371.771 81.6875 371.771 80.8542V37.25C371.771 36.4167 372.188 36 373.021 36H382.896C383.74 36 384.167 36.4167 384.167 37.25V80.8542C384.167 81.6875 383.74 82.1042 382.896 82.1042H373.021Z" fill="#222328"/>
</svg>
