<svg width="465" height="114" viewBox="0 0 465 114" fill="none" xmlns="http://www.w3.org/2000/svg">
<mask id="mask0_13_12" style="mask-type:luminance" maskUnits="userSpaceOnUse" x="0" y="0" width="98" height="114">
<path d="M0 0H97.6458V113.724H0V0Z" fill="white"/>
</mask>
<g mask="url(#mask0_13_12)">
<path d="M1.33333 28.7448C0.921875 29.0052 0.593751 29.349 0.359375 29.7709C0.119792 30.1979 0 30.6511 0 31.1406V83.875C0 84.3698 0.125 84.8386 0.369792 85.2656C0.619792 85.6979 0.953125 86.0417 1.38542 86.2969L47.125 113.297C47.5677 113.552 48.0417 113.682 48.5521 113.682C49.0573 113.682 49.5365 113.552 49.974 113.297L96.151 86.2865C96.5781 86.0365 96.9219 85.6927 97.1719 85.2604C97.4219 84.8281 97.5469 84.3594 97.5469 83.8594L97.6354 31.125C97.6302 30.6354 97.5104 30.1719 97.2708 29.7448C97.0312 29.3177 96.6979 28.974 96.2812 28.7188L50.0312 0.447937C49.5781 0.166686 49.0833 0.026062 48.5521 0.026062C48.0156 0.026062 47.526 0.166686 47.0729 0.447937L1.33333 28.7448ZM48.5677 6.16148L92 32.7188L91.9167 82.2604L48.5677 107.604L5.64062 82.2656V32.7136L48.5677 6.16148Z" fill="#FE151F"/>
</g>
<path d="M11.9583 80.0573C22.2708 85.9635 34.4427 92.9583 46.5885 99.9896C48.0938 100.859 49.3594 100.854 50.8438 99.9896C54.5052 97.8542 58.1667 95.724 61.8333 93.599C69.6354 89.0677 77.7031 84.3854 85.5833 79.6927C86.3594 79.224 86.9896 77.7448 87.0781 76.6406C87.224 74.9375 87.1979 73.1823 87.1823 71.4844C87.1667 70.2813 87.151 69.0417 87.1823 67.8125C87.2188 66.6667 86.8646 66.0729 85.8177 65.4583C81.8073 63.1406 77.8177 60.7917 73.849 58.4219C70.6719 56.5417 67.4896 54.6667 64.3021 52.7969C59.8698 50.1979 55.4167 47.6354 50.9271 45.0469L44.5313 41.3646L45.0156 40.8958C47.1823 38.8073 49.0781 38.5677 51.5625 40.0521C62.25 46.4635 73.2031 52.7083 82.6198 58.0417C83.6771 58.6406 85.3021 58.8906 85.849 58.5365C86.6771 57.9948 87.2917 56.3906 87.3229 55.2865C87.4115 52.2344 87.401 49.125 87.3906 46.1094C87.3906 43.3073 87.3698 40.4115 87.4427 37.5677C87.4896 35.5469 86.7396 34.3125 84.849 33.3125C82.5313 32.0729 80.2135 30.7396 77.974 29.4531L72.3542 26.224C65.0365 22.0365 57.7344 17.8438 50.4427 13.6354C49.1979 12.9167 48.224 12.9115 47.0417 13.5938C43.1198 15.8802 39.1979 18.1615 35.2656 20.4479C27.6667 24.875 19.8073 29.4375 12.1198 33.9948C11.1667 34.6719 10.599 35.5833 10.4115 36.7292C10.2031 39.8802 10.2031 43.026 10.4115 46.1771C10.5208 47.0052 10.9063 47.6719 11.5781 48.1771C15.7292 50.8125 20.0313 53.3385 23.6927 55.4531C30.7604 59.5573 37.8438 63.651 44.9375 67.7396L53.0469 72.4219L52.5313 72.8906C50.7813 74.4948 48.7708 75.7031 46.0469 73.776C44.2344 72.5469 42.3646 71.4219 40.4375 70.3906C39.6615 69.9583 38.8906 69.5261 38.125 69.0781L33.0938 66.1667C27.1771 62.724 21.0573 59.1719 14.9792 55.7865C14.2448 55.4063 13.4688 55.2188 12.6406 55.2188C12.224 55.2031 11.8177 55.2813 11.4323 55.4479C10.8021 55.7656 10.2708 57.375 10.2448 58.5208C10.1719 62 10.1875 65.5156 10.2031 68.9271C10.2031 71.5833 10.2188 74.2448 10.2031 76.9063C10.1719 78.4167 10.6875 79.3229 11.9583 80.0573Z" fill="#FE151F"/>
<path d="M122.355 90.7756C119.188 90.7756 116.388 90.2585 113.953 89.2244C111.54 88.1688 109.644 86.5746 108.266 84.4418C106.887 82.3089 106.197 79.5945 106.197 76.2983C106.197 73.5838 106.661 71.2679 107.587 69.3505C108.513 67.4116 109.806 65.8281 111.465 64.6001C113.124 63.3722 115.052 62.435 117.249 61.7887C119.468 61.1424 121.86 60.7223 124.423 60.5284C127.202 60.313 129.432 60.0544 131.113 59.7528C132.815 59.4297 134.042 58.988 134.797 58.4279C135.551 57.8462 135.928 57.0814 135.928 56.1335V56.0043C135.928 54.7116 135.432 53.7206 134.441 53.0312C133.45 52.3419 132.179 51.9972 130.628 51.9972C128.926 51.9972 127.536 52.3742 126.459 53.1282C125.404 53.8607 124.768 54.9917 124.553 56.5213H108.136C108.352 53.5052 109.31 50.7261 111.012 48.1839C112.736 45.6203 115.246 43.5736 118.542 42.044C121.838 40.4929 125.953 39.7173 130.886 39.7173C134.441 39.7173 137.629 40.1374 140.452 40.9776C143.274 41.7963 145.676 42.9489 147.658 44.4354C149.64 45.9003 151.148 47.6238 152.182 49.6058C153.238 51.5663 153.766 53.6991 153.766 56.0043V90H137.091V83.0199H136.703C135.712 84.8726 134.506 86.3699 133.084 87.5117C131.683 88.6535 130.078 89.483 128.269 90C126.481 90.517 124.509 90.7756 122.355 90.7756ZM128.172 79.5298C129.529 79.5298 130.8 79.2498 131.985 78.6896C133.192 78.1295 134.172 77.3216 134.926 76.266C135.68 75.2103 136.057 73.9285 136.057 72.4205V68.2841C135.583 68.478 135.077 68.6611 134.538 68.8335C134.021 69.0058 133.461 69.1674 132.858 69.3182C132.276 69.469 131.651 69.609 130.983 69.7383C130.337 69.8675 129.658 69.986 128.947 70.0938C127.569 70.3092 126.438 70.6647 125.554 71.1602C124.693 71.6341 124.046 72.2266 123.615 72.9375C123.206 73.6269 123.001 74.4025 123.001 75.2642C123.001 76.643 123.486 77.6986 124.456 78.4311C125.425 79.1636 126.664 79.5298 128.172 79.5298ZM162.289 90V40.3636H179.222V49.7997H179.739C180.773 46.6974 182.54 44.2415 185.039 42.4318C187.538 40.6222 190.511 39.7173 193.958 39.7173C197.448 39.7173 200.453 40.6437 202.974 42.4964C205.494 44.3276 207.013 46.7621 207.53 49.7997H208.047C208.888 46.7621 210.676 44.3276 213.412 42.4964C216.148 40.6437 219.358 39.7173 223.042 39.7173C227.803 39.7173 231.659 41.2469 234.611 44.3061C237.584 47.3653 239.07 51.437 239.07 56.5213V90H221.232V61.0455C221.232 58.8696 220.683 57.1676 219.584 55.9396C218.485 54.6901 217.009 54.0653 215.157 54.0653C213.325 54.0653 211.871 54.6901 210.794 55.9396C209.738 57.1676 209.211 58.8696 209.211 61.0455V90H192.148V61.0455C192.148 58.8696 191.599 57.1676 190.5 55.9396C189.401 54.6901 187.926 54.0653 186.073 54.0653C184.845 54.0653 183.789 54.3454 182.906 54.9055C182.023 55.4657 181.333 56.2736 180.838 57.3292C180.364 58.3633 180.127 59.602 180.127 61.0455V90H162.289ZM247.609 90V23.8182H265.447V49.0241H265.706C266.352 47.3437 267.3 45.8034 268.55 44.4031C269.799 42.9812 271.35 41.8501 273.203 41.0099C275.056 40.1482 277.21 39.7173 279.666 39.7173C282.941 39.7173 286.054 40.5898 289.005 42.3349C291.978 44.0799 294.391 46.8267 296.244 50.5753C298.118 54.3239 299.055 59.1927 299.055 65.1818C299.055 70.9124 298.161 75.6628 296.373 79.4329C294.607 83.203 292.237 86.0144 289.264 87.8672C286.312 89.7199 283.07 90.6463 279.537 90.6463C277.21 90.6463 275.131 90.2693 273.3 89.5153C271.49 88.7397 269.939 87.6948 268.647 86.3807C267.376 85.045 266.395 83.5369 265.706 81.8565H265.318V90H247.609ZM265.06 65.1818C265.06 67.5947 265.372 69.6844 265.997 71.451C266.643 73.196 267.548 74.5533 268.711 75.5227C269.896 76.4706 271.307 76.9446 272.945 76.9446C274.582 76.9446 275.971 76.4814 277.113 75.555C278.277 74.6071 279.16 73.2607 279.763 71.5156C280.388 69.7491 280.7 67.6378 280.7 65.1818C280.7 62.7259 280.388 60.6254 279.763 58.8803C279.16 57.1138 278.277 55.7673 277.113 54.8409C275.971 53.893 274.582 53.419 272.945 53.419C271.307 53.419 269.896 53.893 268.711 54.8409C267.548 55.7673 266.643 57.1138 265.997 58.8803C265.372 60.6254 265.06 62.7259 265.06 65.1818ZM320.351 90.7756C317.184 90.7756 314.384 90.2585 311.949 89.2244C309.536 88.1688 307.641 86.5746 306.262 84.4418C304.883 82.3089 304.194 79.5945 304.194 76.2983C304.194 73.5838 304.657 71.2679 305.583 69.3505C306.509 67.4116 307.802 65.8281 309.461 64.6001C311.12 63.3722 313.048 62.435 315.245 61.7887C317.464 61.1424 319.856 60.7223 322.419 60.5284C325.199 60.313 327.428 60.0544 329.109 59.7528C330.811 59.4297 332.039 58.988 332.793 58.4279C333.547 57.8462 333.924 57.0814 333.924 56.1335V56.0043C333.924 54.7116 333.428 53.7206 332.437 53.0312C331.446 52.3419 330.175 51.9972 328.624 51.9972C326.922 51.9972 325.532 52.3742 324.455 53.1282C323.4 53.8607 322.764 54.9917 322.549 56.5213H306.132C306.348 53.5052 307.307 50.7261 309.009 48.1839C310.732 45.6203 313.242 43.5736 316.538 42.044C319.834 40.4929 323.949 39.7173 328.882 39.7173C332.437 39.7173 335.626 40.1374 338.448 40.9776C341.27 41.7963 343.672 42.9489 345.654 44.4354C347.636 45.9003 349.144 47.6238 350.178 49.6058C351.234 51.5663 351.762 53.6991 351.762 56.0043V90H335.087V83.0199H334.699C333.708 84.8726 332.502 86.3699 331.08 87.5117C329.68 88.6535 328.075 89.483 326.265 90C324.477 90.517 322.506 90.7756 320.351 90.7756ZM326.168 79.5298C327.525 79.5298 328.796 79.2498 329.981 78.6896C331.188 78.1295 332.168 77.3216 332.922 76.266C333.676 75.2103 334.053 73.9285 334.053 72.4205V68.2841C333.579 68.478 333.073 68.6611 332.534 68.8335C332.017 69.0058 331.457 69.1674 330.854 69.3182C330.272 69.469 329.647 69.609 328.979 69.7383C328.333 69.8675 327.654 69.986 326.944 70.0938C325.565 70.3092 324.434 70.6647 323.55 71.1602C322.689 71.6341 322.042 72.2266 321.612 72.9375C321.202 73.6269 320.998 74.4025 320.998 75.2642C320.998 76.643 321.482 77.6986 322.452 78.4311C323.421 79.1636 324.66 79.5298 326.168 79.5298ZM369.979 91.0341C367.48 91.0341 365.337 90.1616 363.549 88.4165C361.782 86.65 360.91 84.5064 360.931 81.9858C360.91 79.5298 361.782 77.4293 363.549 75.6843C365.337 73.9393 367.48 73.0668 369.979 73.0668C372.349 73.0668 374.439 73.9393 376.249 75.6843C378.08 77.4293 379.006 79.5298 379.028 81.9858C379.006 83.6662 378.565 85.1958 377.703 86.5746C376.863 87.9318 375.764 89.0198 374.407 89.8384C373.049 90.6355 371.574 91.0341 369.979 91.0341ZM402.553 90.7756C399.386 90.7756 396.586 90.2585 394.151 89.2244C391.738 88.1688 389.843 86.5746 388.464 84.4418C387.085 82.3089 386.396 79.5945 386.396 76.2983C386.396 73.5838 386.859 71.2679 387.785 69.3505C388.712 67.4116 390.004 65.8281 391.663 64.6001C393.322 63.3722 395.25 62.435 397.448 61.7887C399.667 61.1424 402.058 60.7223 404.622 60.5284C407.401 60.313 409.63 60.0544 411.311 59.7528C413.013 59.4297 414.241 58.988 414.995 58.4279C415.749 57.8462 416.126 57.0814 416.126 56.1335V56.0043C416.126 54.7116 415.63 53.7206 414.639 53.0312C413.648 52.3419 412.377 51.9972 410.826 51.9972C409.124 51.9972 407.735 52.3742 406.657 53.1282C405.602 53.8607 404.966 54.9917 404.751 56.5213H388.335C388.55 53.5052 389.509 50.7261 391.211 48.1839C392.934 45.6203 395.444 43.5736 398.74 42.044C402.036 40.4929 406.151 39.7173 411.085 39.7173C414.639 39.7173 417.828 40.1374 420.65 40.9776C423.472 41.7963 425.874 42.9489 427.856 44.4354C429.838 45.9003 431.346 47.6238 432.38 49.6058C433.436 51.5663 433.964 53.6991 433.964 56.0043V90H417.289V83.0199H416.901C415.91 84.8726 414.704 86.3699 413.282 87.5117C411.882 88.6535 410.277 89.483 408.467 90C406.679 90.517 404.708 90.7756 402.553 90.7756ZM408.37 79.5298C409.727 79.5298 410.998 79.2498 412.183 78.6896C413.39 78.1295 414.37 77.3216 415.124 76.266C415.878 75.2103 416.255 73.9285 416.255 72.4205V68.2841C415.781 68.478 415.275 68.6611 414.736 68.8335C414.219 69.0058 413.659 69.1674 413.056 69.3182C412.474 69.469 411.849 69.609 411.182 69.7383C410.535 69.8675 409.857 69.986 409.146 70.0938C407.767 70.3092 406.636 70.6647 405.753 71.1602C404.891 71.6341 404.245 72.2266 403.814 72.9375C403.404 73.6269 403.2 74.4025 403.2 75.2642C403.2 76.643 403.684 77.6986 404.654 78.4311C405.623 79.1636 406.862 79.5298 408.37 79.5298ZM442.487 90V40.3636H460.325V90H442.487ZM451.406 35.1932C448.993 35.1932 446.925 34.3961 445.202 32.8018C443.478 31.2076 442.616 29.2902 442.616 27.0497C442.616 24.8092 443.478 22.8918 445.202 21.2976C446.925 19.7034 448.993 18.9062 451.406 18.9062C453.84 18.9062 455.909 19.7034 457.611 21.2976C459.334 22.8918 460.196 24.8092 460.196 27.0497C460.196 29.2902 459.334 31.2076 457.611 32.8018C455.909 34.3961 453.84 35.1932 451.406 35.1932Z" fill="#222328"/>
</svg>
